<?xml version="1.0" encoding="utf-8"?>
<!-- Generator: Adobe Illustrator 16.0.4, SVG Export Plug-In . SVG Version: 6.00 Build 0)  -->
<!DOCTYPE svg PUBLIC "-//W3C//DTD SVG 1.1//EN" "http://www.w3.org/Graphics/SVG/1.1/DTD/svg11.dtd">
<svg version="1.1" id="Laag_1" xmlns:sketch="http://www.bohemiancoding.com/sketch/ns"
	 xmlns="http://www.w3.org/2000/svg" xmlns:xlink="http://www.w3.org/1999/xlink" x="0px" y="0px" width="208px" height="43px"
	 viewBox="0 0 208 43" enable-background="new 0 0 208 43" xml:space="preserve">
<g>
	<path id="path-1" fill="#FFFFFF" d="M16,2h16c8.836,0,16,7.164,16,16l0,0c0,8.836-7.164,16-16,16H16C7.164,34,0,26.836,0,18l0,0
		C0,9.164,7.164,2,16,2z"/>
</g>
<title>logo</title>
<desc>Created with Sketch.</desc>
<g id="homepage" sketch:type="MSPage">
	<g id="icon" transform="translate(0.000000, 9.000000)">
		<g id="Rectangle-9-_x2B_-Rectangle-10">
			<g id="Mask" sketch:type="MSShapeGroup">
				<path id="path-1_1_" fill="#E54142" d="M16-7h16c8.836,0,16,7.164,16,16l0,0c0,8.836-7.164,16-16,16H16C7.164,25,0,17.836,0,9
					l0,0C0,0.164,7.164-7,16-7z"/>
			</g>
			<path id="Rectangle-10-Copy" sketch:type="MSShapeGroup" fill="#27B0A3" d="M23.904,11.747l14.849,14.849
				c1.562,1.562,1.562,4.096,0,5.657l0,0c-1.562,1.562-4.095,1.562-5.657,0L18.247,17.404c-1.562-1.562-1.562-4.096,0-5.657l0,0
				C19.809,10.185,22.342,10.185,23.904,11.747z"/>
			<path fill="none" d="z"/>
			<g transform="translate(26.500000, 27.000000) rotate(-315.000000) translate(-26.500000, -27.000000) ">
			</g>
		</g>
		<path id="Rectangle-11" sketch:type="MSShapeGroup" fill="#FFFFFF" d="M16,1h16c4.418,0,8,3.582,8,8l0,0c0,4.418-3.582,8-8,8H16
			c-4.418,0-8-3.582-8-8l0,0C8,4.582,11.582,1,16,1z"/>
	</g>
    
    <path d="M65.016,27 L69.88,27 L69.88,16.408 C70.744,15.736 71.928,15.096 73.176,15.096 C73.848,15.096 74.424,15.288 74.84,15.768 C75.224,16.216 75.384,16.792 75.384,17.976 L75.384,27 L80.248,27 L80.248,17.176 C80.248,14.904 79.832,13.528 78.872,12.504 C77.88,11.48 76.408,10.904 74.744,10.904 C72.76,10.904 71.096,11.736 69.88,12.728 L69.816,12.696 L69.816,11.256 L65.016,11.256 L65.016,27 Z M88.088,19.128 C88.088,16.888 89.784,15.096 91.992,15.096 C94.2,15.096 95.896,16.888 95.896,19.128 C95.896,21.368 94.2,23.16 91.992,23.16 C89.784,23.16 88.088,21.368 88.088,19.128 L88.088,19.128 Z M83.224,19.128 C83.224,23.768 86.968,27.352 91.992,27.352 C97.016,27.352 100.76,23.768 100.76,19.128 C100.76,14.488 97.016,10.904 91.992,10.904 C86.968,10.904 83.224,14.488 83.224,19.128 L83.224,19.128 Z M106.36,25.784 C107.352,26.84 108.856,27.352 110.456,27.352 C111.832,27.352 113.272,26.968 114.008,26.488 L114.008,22.616 C113.368,22.936 112.472,23.256 111.672,23.256 C110.2,23.256 109.848,22.104 109.848,20.568 L109.848,15.288 L114.008,15.288 L114.008,11.256 L109.848,11.256 L109.848,6.328 L104.984,7.16 L104.984,11.256 L102.424,11.256 L102.424,15.288 L104.984,15.288 L104.984,21.08 C104.984,23.576 105.528,24.888 106.36,25.784 L106.36,25.784 Z M116.536,6.264 C116.536,7.8 117.816,9.048 119.352,9.048 C120.888,9.048 122.168,7.8 122.168,6.264 C122.168,4.728 120.888,3.48 119.352,3.48 C117.816,3.48 116.536,4.728 116.536,6.264 L116.536,6.264 Z M116.92,27 L121.784,27 L121.784,11.256 L116.92,11.256 L116.92,27 Z M126.68,27 L131.544,27 L131.544,15.288 L135.192,15.288 L135.192,11.256 L131.544,11.256 L131.544,8.6 C131.544,7.256 131.864,6.296 133.368,6.296 C133.912,6.296 134.872,6.424 135.48,6.584 L135.48,2.648 C134.616,2.328 133.688,2.2 132.792,2.2 C131.224,2.2 129.464,2.584 128.344,3.672 C127.128,4.824 126.68,6.712 126.68,8.92 L126.68,11.256 L124.44,11.256 L124.44,15.288 L126.68,15.288 L126.68,27 Z M137.464,6.264 C137.464,7.8 138.744,9.048 140.28,9.048 C141.816,9.048 143.096,7.8 143.096,6.264 C143.096,4.728 141.816,3.48 140.28,3.48 C138.744,3.48 137.464,4.728 137.464,6.264 L137.464,6.264 Z M137.848,27 L142.712,27 L142.712,11.256 L137.848,11.256 L137.848,27 Z M145.784,19.16 C145.784,23.896 149.496,27.352 154.552,27.352 C156.344,27.352 158.2,26.968 159.704,26.136 L159.704,21.656 C158.392,22.648 156.632,23.224 155.096,23.224 C152.472,23.224 150.648,21.528 150.648,19.128 C150.648,16.76 152.44,15 155.032,15 C156.536,15 158.072,15.576 159.48,16.472 L159.48,11.96 C158.2,11.32 156.568,10.904 154.808,10.904 C149.88,10.904 145.784,14.2 145.784,19.16 L145.784,19.16 Z M167.608,27.352 C169.4,27.352 170.968,26.776 171.992,26.04 L172.056,26.04 C172.92,26.936 174.168,27.288 175.448,27.288 C176.376,27.288 177.24,27.096 177.784,26.808 L177.784,23.16 C177.528,23.288 177.24,23.352 176.984,23.352 C176.312,23.352 176.024,22.84 176.024,22.104 L176.024,16.76 C176.024,14.776 175.448,13.368 174.264,12.408 C173.016,11.384 171.128,10.904 169.016,10.904 C166.712,10.904 164.792,11.48 163.512,12.12 L163.512,16.312 C164.76,15.64 166.36,15.064 168.12,15.064 C169.272,15.064 170.104,15.32 170.552,15.736 C170.904,16.056 171.16,16.632 171.16,17.4 L171.16,18.008 C170.296,17.816 169.368,17.72 168.44,17.72 C166.808,17.72 165.24,18.008 164.024,18.84 C162.904,19.608 162.104,20.92 162.104,22.648 C162.104,24.28 162.808,25.528 163.96,26.328 C164.984,27.032 166.264,27.352 167.608,27.352 L167.608,27.352 Z M168.952,23.768 C167.832,23.768 166.936,23.224 166.936,22.2 C166.936,20.984 168.184,20.6 169.432,20.6 C169.944,20.6 170.648,20.664 171.16,20.824 L171.16,23.128 C170.584,23.48 169.784,23.768 168.952,23.768 L168.952,23.768 Z M180.312,27 L185.176,27 L185.176,17.464 C186.328,16.12 187.736,15.608 189.432,15.608 C189.88,15.608 190.36,15.672 190.744,15.768 L190.744,11.192 C190.392,11.096 190.04,11.064 189.72,11.064 C187.768,11.064 186.232,11.864 185.144,13.4 L185.08,13.368 L185.08,11.256 L180.312,11.256 L180.312,27 Z M207.832,20.408 C207.896,19.992 207.928,19.288 207.928,18.744 C207.928,13.464 204.28,10.904 200.408,10.904 C196.056,10.904 192.152,14.168 192.152,19.192 C192.152,24.12 195.896,27.352 201.08,27.352 C203.16,27.352 205.528,26.872 207.064,25.912 L207.064,21.848 C205.4,22.968 203.48,23.576 201.72,23.576 C199.48,23.576 197.688,22.584 197.144,20.408 L207.832,20.408 Z M200.344,14.616 C201.912,14.616 203.16,15.64 203.448,17.336 L197.112,17.336 C197.528,15.544 198.84,14.616 200.344,14.616 L200.344,14.616 Z" id="notificare" fill="#232C2A" sketch:type="MSShapeGroup"></path>
	<g enable-background="new    ">
		<g>
			<defs>
				<rect id="SVGID_1_" x="15" y="17" width="22" height="17"/>
			</defs>
			<clipPath id="SVGID_2_">
				<use xlink:href="#SVGID_1_"  overflow="visible"/>
			</clipPath>
			<g clip-path="url(#SVGID_2_)">
				<defs>
					<path id="SVGID_3_" d="M29.133,25.976l7.619,7.619c1.562,1.562,1.561,4.1,0.001,5.658c-1.562,1.562-4.096,1.562-5.658-0.001
						L17.781,25.938"/>
				</defs>
				<clipPath id="SVGID_4_">
					<use xlink:href="#SVGID_3_"  overflow="visible"/>
				</clipPath>
				<g clip-path="url(#SVGID_4_)">
					<defs>
						<rect id="SVGID_5_" x="15" y="17" width="22" height="17"/>
					</defs>
					<clipPath id="SVGID_6_">
						<use xlink:href="#SVGID_5_"  overflow="visible"/>
					</clipPath>
					
						<rect x="7" y="20" transform="matrix(-0.7071 -0.7071 0.7071 -0.7071 24.7322 68.2444)" clip-path="url(#SVGID_6_)" fill="#232C2A" width="39" height="17.999"/>
				</g>
			</g>
		</g>
	</g>
	<path fill-rule="evenodd" clip-rule="evenodd" fill="none" d="M0,18C0,9.163,7.16,2,16,2h16c8.836,0,16,7.161,16,16
		c0,8.837-7.16,16-16,16H16C7.164,34,0,26.839,0,18z"/>
</g>
</svg>
